# xmcd
#
# Track frame offsets: 
#        179
#        10669
#        23646
#        35303
#        48714
#        60703
#        73145
#        87410
#        100425
#        113364
#
# Disc length: 1721 seconds
#
# Revision: 4
# Processed by: cddbd v1.5.2PL0 Copyright (c) Steve Scherf et al.
# Submitted via: ExactAudioCopyFreeDBPlugin 1.0
#
DISCID=7b06b70a
DTITLE=JOHNNY CASH - 1972 - Johnny Cash - A Thing Called Love
DYEAR=1972
DGENRE=Country
TTITLE0=Kate
TTITLE1=Melva's wine
TTITLE2=A thing called love
TTITLE3=I promise you
TTITLE4=Papa was a good man
TTITLE5=Tear stained letter
TTITLE6=Mississippi sand
TTITLE7=Daddy
TTITLE8=Arkansas lovin' man
TTITLE9=The miracle man
EXTD=
EXTT0=
EXTT1=
EXTT2=
EXTT3=
EXTT4=
EXTT5=
EXTT6=
EXTT7=
EXTT8=
EXTT9=
PLAYORDER=
